<svg width="38" height="38" viewBox="0 0 38 38" fill="none" xmlns="http://www.w3.org/2000/svg">
    <path d="M26.8121 7.08021L37.3252 17.5043L37.4131 17.5858C37.7649 17.9347 37.9695 18.3947 38 18.9382L37.9982 19.1209C37.9727 19.5515 37.8082 19.9628 37.4839 20.3314L37.3613 20.458L26.8121 30.9198C26.032 31.6934 24.7706 31.6934 23.9904 30.9198C23.2056 30.1415 23.2056 28.8763 23.9904 28.0981L31.2743 20.8739L1.99947 20.8746C0.897064 20.8746 0 19.9851 0 18.8835C0 17.782 0.897074 16.8924 1.99945 16.8924L31.0392 16.8917L23.9904 9.90198C23.2056 9.12374 23.2056 7.85845 23.9904 7.08021C24.7706 6.3066 26.032 6.3066 26.8121 7.08021Z" fill="black"/>
    </svg>
    