<svg fill="#fff" viewBox="0 0 32 32" version="1.1" xmlns="http://www.w3.org/2000/svg" stroke="#fff"><g id="SVGRepo_bgCarrier" stroke-width="0"></g><g id="SVGRepo_tracerCarrier" stroke-linecap="round" stroke-linejoin="round"></g><g id="SVGRepo_iconCarrier"> <title>snapchat</title> <path d="M16.257 1.995c0.029-0 0.064-0.001 0.099-0.001 3.249 0 6.044 1.94 7.291 4.725l0.020 0.051c0.333 1.18 0.524 2.534 0.524 3.934 0 0.749-0.055 1.485-0.161 2.205l0.010-0.082-0.004 0.075c-0.015 0.225-0.027 0.431-0.037 0.637 0.132 0.072 0.289 0.114 0.456 0.114 0.016 0 0.032-0 0.048-0.001l-0.002 0c0.478-0.045 0.916-0.179 1.31-0.385l-0.019 0.009c0.162-0.082 0.352-0.13 0.554-0.13 0.009 0 0.018 0 0.027 0l-0.001-0c0.008-0 0.017-0 0.026-0 0.219 0 0.429 0.041 0.622 0.117l-0.012-0.004c0.496 0.117 0.868 0.532 0.917 1.042l0 0.005q0.028 0.842-1.516 1.46c-0.111 0.036-0.261 0.094-0.43 0.149-0.562 0.169-1.423 0.45-1.666 1.012-0.036 0.114-0.056 0.244-0.056 0.38 0 0.262 0.077 0.506 0.209 0.71l-0.003-0.005 0.019 0.019c1.117 2.493 3.286 4.344 5.926 5.003l0.061 0.013c0.299 0.049 0.525 0.306 0.525 0.616 0 0.007-0 0.014-0 0.021l0-0.001c-0.001 0.102-0.021 0.198-0.058 0.286l0.002-0.005c-0.3 0.711-1.591 1.235-3.931 1.588-0.087 0.204-0.158 0.444-0.202 0.692l-0.003 0.020c-0.046 0.268-0.104 0.501-0.177 0.727l0.010-0.036c-0.069 0.293-0.329 0.508-0.638 0.508-0.019 0-0.039-0.001-0.058-0.003l0.002 0h-0.037c-0.246-0.013-0.476-0.046-0.699-0.098l0.027 0.005c-0.477-0.107-1.024-0.169-1.586-0.169-0.002 0-0.003 0-0.005 0h0c-0.024-0-0.053-0.001-0.082-0.001-0.374 0-0.74 0.034-1.096 0.099l0.037-0.006c-0.83 0.222-1.551 0.603-2.162 1.112l0.009-0.007c-1.108 0.944-2.536 1.541-4.102 1.609l-0.014 0c-0.075 0-0.149-0.019-0.225-0.019h-0.186c-1.575-0.060-3-0.659-4.106-1.617l0.008 0.007c-0.596-0.501-1.311-0.882-2.094-1.096l-0.039-0.009c-0.346-0.055-0.747-0.089-1.156-0.092l-0.004-0c-0.568 0.008-1.115 0.076-1.642 0.196l0.053-0.010c-0.199 0.049-0.43 0.082-0.667 0.092l-0.007 0c-0.016 0.001-0.034 0.002-0.052 0.002-0.325 0-0.597-0.222-0.675-0.522l-0.001-0.005c-0.076-0.24-0.112-0.486-0.169-0.709-0.047-0.269-0.119-0.508-0.216-0.734l0.008 0.022c-2.397-0.277-3.686-0.802-3.985-1.532-0.039-0.082-0.064-0.178-0.069-0.279l-0-0.002c-0-0.007-0-0.015-0-0.023 0-0.309 0.226-0.565 0.522-0.612l0.004-0c2.703-0.674 4.873-2.527 5.965-4.968l0.022-0.056 0.020-0.036c0.133-0.195 0.212-0.436 0.212-0.695 0-0.14-0.023-0.274-0.065-0.4l0.003 0.009c-0.244-0.542-1.105-0.822-1.665-1.011-0.168-0.043-0.312-0.094-0.45-0.156l0.018 0.007c-1.383-0.544-1.571-1.162-1.496-1.591 0.207-0.583 0.753-0.992 1.395-0.992 0.023 0 0.045 0.001 0.068 0.002l-0.003-0c0.001 0 0.002 0 0.004 0 0.171 0 0.334 0.034 0.483 0.096l-0.008-0.003c0.401 0.211 0.871 0.346 1.371 0.374l0.009 0c0.012 0 0.025 0.001 0.039 0.001 0.198 0 0.385-0.049 0.549-0.135l-0.006 0.003-0.057-0.711c-0.093-0.628-0.147-1.354-0.147-2.092 0-1.406 0.194-2.768 0.555-4.058l-0.025 0.106c1.237-2.815 4.001-4.746 7.216-4.746 0.044 0 0.088 0 0.131 0.001l-0.007-0 0.524-0.019h0.075z"></path> </g></svg>